# xmcd
#
# Track frame offsets: 
#        150
#        16933
#        32920
#        43716
#        73742
#        94825
#        109711
#        130320
#        149569
#        177377
#        201952
#
# Disc length: 3000 seconds
#
# Revision: 0
# Processed by: cddbd v1.5.2PL0 Copyright (c) Steve Scherf et al.
# Submitted via: ExactAudioCopy v1.0b3
#
DISCID=a30bb60b
DTITLE=Flat Blue Ltd. - Flat Blue Ltd.
DYEAR=2013
DGENRE=Boogie-Woogie
TTITLE0=broke
TTITLE1=crazy mixed-up world
TTITLE2=i want to be loved
TTITLE3=you get me down
TTITLE4=i don't want you hangin' around
TTITLE5=alimony
TTITLE6=let the good times roll
TTITLE7=i'm ready
TTITLE8=i can't be satisfied
TTITLE9=got my mojo workin'
TTITLE10=back door man
EXTD=
EXTT0=
EXTT1=
EXTT2=
EXTT3=
EXTT4=
EXTT5=
EXTT6=
EXTT7=
EXTT8=
EXTT9=
EXTT10=
PLAYORDER=
